<mxfile host="app.diagrams.net" agent="Mozilla/5.0 (Windows NT 10.0; Win64; x64) AppleWebKit/537.36 (KHTML, like Gecko) Chrome/133.0.0.0 Safari/537.36" version="26.0.11">
  <diagram name="Page-1" id="Syy05wB_BcTBJ3GtRQ8d">
    <mxGraphModel dx="2443" dy="2533" grid="1" gridSize="10" guides="1" tooltips="1" connect="1" arrows="1" fold="1" page="1" pageScale="1" pageWidth="850" pageHeight="1100" math="0" shadow="0">
      <root>
        <mxCell id="0" />
        <mxCell id="1" parent="0" />
        <mxCell id="SjbKB2yikU2P-jFt_6lF-1" value="" style="rounded=0;whiteSpace=wrap;html=1;fillColor=#fff2cc;strokeColor=#d6b656;gradientColor=#ffd966;" parent="1" vertex="1">
          <mxGeometry x="470" y="110" width="120" height="300" as="geometry" />
        </mxCell>
        <mxCell id="SjbKB2yikU2P-jFt_6lF-43" style="edgeStyle=orthogonalEdgeStyle;rounded=0;orthogonalLoop=1;jettySize=auto;html=1;exitX=1;exitY=0.5;exitDx=0;exitDy=0;entryX=0.011;entryY=0.181;entryDx=0;entryDy=0;entryPerimeter=0;" parent="1" source="SjbKB2yikU2P-jFt_6lF-2" target="SjbKB2yikU2P-jFt_6lF-19" edge="1">
          <mxGeometry relative="1" as="geometry">
            <mxPoint x="890" y="165" as="targetPoint" />
          </mxGeometry>
        </mxCell>
        <mxCell id="SjbKB2yikU2P-jFt_6lF-78" style="edgeStyle=orthogonalEdgeStyle;rounded=0;orthogonalLoop=1;jettySize=auto;html=1;exitX=1;exitY=0.5;exitDx=0;exitDy=0;entryX=0;entryY=0.25;entryDx=0;entryDy=0;" parent="1" source="SjbKB2yikU2P-jFt_6lF-2" target="SjbKB2yikU2P-jFt_6lF-29" edge="1">
          <mxGeometry relative="1" as="geometry" />
        </mxCell>
        <mxCell id="SjbKB2yikU2P-jFt_6lF-2" value="exp1" style="rounded=1;whiteSpace=wrap;html=1;" parent="1" vertex="1">
          <mxGeometry x="485" y="140" width="90" height="50" as="geometry" />
        </mxCell>
        <mxCell id="SjbKB2yikU2P-jFt_6lF-4" value="exp2" style="rounded=1;whiteSpace=wrap;html=1;" parent="1" vertex="1">
          <mxGeometry x="485" y="210" width="90" height="50" as="geometry" />
        </mxCell>
        <mxCell id="SjbKB2yikU2P-jFt_6lF-5" value="expj" style="rounded=1;whiteSpace=wrap;html=1;" parent="1" vertex="1">
          <mxGeometry x="485" y="340" width="90" height="50" as="geometry" />
        </mxCell>
        <mxCell id="SjbKB2yikU2P-jFt_6lF-7" value="" style="endArrow=none;dashed=1;html=1;dashPattern=1 3;strokeWidth=2;rounded=0;" parent="1" edge="1">
          <mxGeometry width="50" height="50" relative="1" as="geometry">
            <mxPoint x="529.5" y="330" as="sourcePoint" />
            <mxPoint x="529.5" y="260" as="targetPoint" />
            <Array as="points">
              <mxPoint x="529.5" y="300" />
            </Array>
          </mxGeometry>
        </mxCell>
        <mxCell id="SjbKB2yikU2P-jFt_6lF-19" value="" style="rounded=0;whiteSpace=wrap;html=1;fillColor=#fff2cc;gradientColor=#ffd966;strokeColor=#d6b656;" parent="1" vertex="1">
          <mxGeometry x="900" y="110" width="120" height="300" as="geometry" />
        </mxCell>
        <mxCell id="SjbKB2yikU2P-jFt_6lF-20" value="RAM2_0" style="rounded=1;whiteSpace=wrap;html=1;" parent="1" vertex="1">
          <mxGeometry x="915" y="140" width="90" height="50" as="geometry" />
        </mxCell>
        <mxCell id="SjbKB2yikU2P-jFt_6lF-21" value="RAM2_1" style="rounded=1;whiteSpace=wrap;html=1;" parent="1" vertex="1">
          <mxGeometry x="915" y="210" width="90" height="50" as="geometry" />
        </mxCell>
        <mxCell id="SjbKB2yikU2P-jFt_6lF-22" value="RAM2_ j" style="rounded=1;whiteSpace=wrap;html=1;" parent="1" vertex="1">
          <mxGeometry x="915" y="340" width="90" height="50" as="geometry" />
        </mxCell>
        <mxCell id="SjbKB2yikU2P-jFt_6lF-23" value="" style="endArrow=none;dashed=1;html=1;dashPattern=1 3;strokeWidth=2;rounded=0;" parent="1" edge="1">
          <mxGeometry width="50" height="50" relative="1" as="geometry">
            <mxPoint x="959.5" y="330" as="sourcePoint" />
            <mxPoint x="959.5" y="260" as="targetPoint" />
            <Array as="points">
              <mxPoint x="959.5" y="300" />
            </Array>
          </mxGeometry>
        </mxCell>
        <mxCell id="SjbKB2yikU2P-jFt_6lF-156" style="edgeStyle=orthogonalEdgeStyle;rounded=0;orthogonalLoop=1;jettySize=auto;html=1;exitX=1;exitY=0.5;exitDx=0;exitDy=0;entryX=0;entryY=0.5;entryDx=0;entryDy=0;" parent="1" source="SjbKB2yikU2P-jFt_6lF-29" target="SjbKB2yikU2P-jFt_6lF-35" edge="1">
          <mxGeometry relative="1" as="geometry" />
        </mxCell>
        <mxCell id="SjbKB2yikU2P-jFt_6lF-29" value="Adder Tree&lt;br&gt;(N - 1)" style="rounded=0;whiteSpace=wrap;html=1;fillColor=#fff2cc;gradientColor=#ffd966;strokeColor=#d6b656;" parent="1" vertex="1">
          <mxGeometry x="680" y="510" width="120" height="300" as="geometry" />
        </mxCell>
        <mxCell id="SjbKB2yikU2P-jFt_6lF-157" style="edgeStyle=orthogonalEdgeStyle;rounded=0;orthogonalLoop=1;jettySize=auto;html=1;exitX=1;exitY=0.5;exitDx=0;exitDy=0;entryX=0;entryY=0.5;entryDx=0;entryDy=0;" parent="1" source="SjbKB2yikU2P-jFt_6lF-35" target="SjbKB2yikU2P-jFt_6lF-85" edge="1">
          <mxGeometry relative="1" as="geometry" />
        </mxCell>
        <mxCell id="SjbKB2yikU2P-jFt_6lF-35" value="Accumulator" style="rounded=0;whiteSpace=wrap;html=1;fillColor=#fff2cc;gradientColor=#ffd966;strokeColor=#d6b656;" parent="1" vertex="1">
          <mxGeometry x="900" y="630" width="120" height="60" as="geometry" />
        </mxCell>
        <mxCell id="SjbKB2yikU2P-jFt_6lF-46" style="edgeStyle=orthogonalEdgeStyle;rounded=0;orthogonalLoop=1;jettySize=auto;html=1;exitX=1;exitY=0.5;exitDx=0;exitDy=0;entryX=-0.009;entryY=0.42;entryDx=0;entryDy=0;entryPerimeter=0;" parent="1" source="SjbKB2yikU2P-jFt_6lF-4" target="SjbKB2yikU2P-jFt_6lF-19" edge="1">
          <mxGeometry relative="1" as="geometry" />
        </mxCell>
        <mxCell id="SjbKB2yikU2P-jFt_6lF-47" style="edgeStyle=orthogonalEdgeStyle;rounded=0;orthogonalLoop=1;jettySize=auto;html=1;exitX=1;exitY=0.5;exitDx=0;exitDy=0;entryX=-0.023;entryY=0.853;entryDx=0;entryDy=0;entryPerimeter=0;" parent="1" source="SjbKB2yikU2P-jFt_6lF-5" target="SjbKB2yikU2P-jFt_6lF-19" edge="1">
          <mxGeometry relative="1" as="geometry" />
        </mxCell>
        <mxCell id="SjbKB2yikU2P-jFt_6lF-63" value="" style="rounded=0;whiteSpace=wrap;html=1;fillColor=#f8cecc;gradientColor=#ea6b66;strokeColor=#b85450;" parent="1" vertex="1">
          <mxGeometry x="1440" y="110" width="120" height="300" as="geometry" />
        </mxCell>
        <mxCell id="SjbKB2yikU2P-jFt_6lF-64" style="edgeStyle=orthogonalEdgeStyle;rounded=0;orthogonalLoop=1;jettySize=auto;html=1;exitX=1;exitY=0.5;exitDx=0;exitDy=0;entryX=0.011;entryY=0.181;entryDx=0;entryDy=0;entryPerimeter=0;" parent="1" source="SjbKB2yikU2P-jFt_6lF-65" target="SjbKB2yikU2P-jFt_6lF-69" edge="1">
          <mxGeometry relative="1" as="geometry">
            <mxPoint x="1860" y="165" as="targetPoint" />
          </mxGeometry>
        </mxCell>
        <mxCell id="SjbKB2yikU2P-jFt_6lF-65" value="mul1" style="rounded=1;whiteSpace=wrap;html=1;" parent="1" vertex="1">
          <mxGeometry x="1455" y="140" width="90" height="50" as="geometry" />
        </mxCell>
        <mxCell id="SjbKB2yikU2P-jFt_6lF-66" value="mul2" style="rounded=1;whiteSpace=wrap;html=1;" parent="1" vertex="1">
          <mxGeometry x="1455" y="210" width="90" height="50" as="geometry" />
        </mxCell>
        <mxCell id="SjbKB2yikU2P-jFt_6lF-67" value="mulj" style="rounded=1;whiteSpace=wrap;html=1;" parent="1" vertex="1">
          <mxGeometry x="1455" y="340" width="90" height="50" as="geometry" />
        </mxCell>
        <mxCell id="SjbKB2yikU2P-jFt_6lF-68" value="" style="endArrow=none;dashed=1;html=1;dashPattern=1 3;strokeWidth=2;rounded=0;" parent="1" edge="1">
          <mxGeometry width="50" height="50" relative="1" as="geometry">
            <mxPoint x="1499.5" y="330" as="sourcePoint" />
            <mxPoint x="1499.5" y="260" as="targetPoint" />
            <Array as="points">
              <mxPoint x="1499.5" y="300" />
            </Array>
          </mxGeometry>
        </mxCell>
        <mxCell id="SjbKB2yikU2P-jFt_6lF-69" value="" style="rounded=0;whiteSpace=wrap;html=1;fillColor=#f8cecc;gradientColor=#ea6b66;strokeColor=#b85450;" parent="1" vertex="1">
          <mxGeometry x="1710" y="110" width="120" height="300" as="geometry" />
        </mxCell>
        <mxCell id="SjbKB2yikU2P-jFt_6lF-134" style="edgeStyle=orthogonalEdgeStyle;rounded=0;orthogonalLoop=1;jettySize=auto;html=1;exitX=1;exitY=0.5;exitDx=0;exitDy=0;" parent="1" source="SjbKB2yikU2P-jFt_6lF-70" edge="1">
          <mxGeometry relative="1" as="geometry">
            <mxPoint x="1920.0000000000005" y="165.69230769230762" as="targetPoint" />
          </mxGeometry>
        </mxCell>
        <mxCell id="SjbKB2yikU2P-jFt_6lF-70" value="RAM3_0" style="rounded=1;whiteSpace=wrap;html=1;" parent="1" vertex="1">
          <mxGeometry x="1725" y="140" width="90" height="50" as="geometry" />
        </mxCell>
        <mxCell id="SjbKB2yikU2P-jFt_6lF-135" style="edgeStyle=orthogonalEdgeStyle;rounded=0;orthogonalLoop=1;jettySize=auto;html=1;exitX=1;exitY=0.5;exitDx=0;exitDy=0;" parent="1" source="SjbKB2yikU2P-jFt_6lF-71" edge="1">
          <mxGeometry relative="1" as="geometry">
            <mxPoint x="1920.0000000000005" y="234.9230769230769" as="targetPoint" />
          </mxGeometry>
        </mxCell>
        <mxCell id="SjbKB2yikU2P-jFt_6lF-71" value="RAM3_1" style="rounded=1;whiteSpace=wrap;html=1;" parent="1" vertex="1">
          <mxGeometry x="1725" y="210" width="90" height="50" as="geometry" />
        </mxCell>
        <mxCell id="SjbKB2yikU2P-jFt_6lF-136" style="edgeStyle=orthogonalEdgeStyle;rounded=0;orthogonalLoop=1;jettySize=auto;html=1;exitX=1;exitY=0.5;exitDx=0;exitDy=0;" parent="1" source="SjbKB2yikU2P-jFt_6lF-72" edge="1">
          <mxGeometry relative="1" as="geometry">
            <mxPoint x="1920.0000000000005" y="365.6923076923076" as="targetPoint" />
          </mxGeometry>
        </mxCell>
        <mxCell id="SjbKB2yikU2P-jFt_6lF-72" value="RAM3_ j" style="rounded=1;whiteSpace=wrap;html=1;" parent="1" vertex="1">
          <mxGeometry x="1725" y="340" width="90" height="50" as="geometry" />
        </mxCell>
        <mxCell id="SjbKB2yikU2P-jFt_6lF-73" value="" style="endArrow=none;dashed=1;html=1;dashPattern=1 3;strokeWidth=2;rounded=0;" parent="1" edge="1">
          <mxGeometry width="50" height="50" relative="1" as="geometry">
            <mxPoint x="1769.5" y="330" as="sourcePoint" />
            <mxPoint x="1769.5" y="260" as="targetPoint" />
            <Array as="points">
              <mxPoint x="1769.5" y="300" />
            </Array>
          </mxGeometry>
        </mxCell>
        <mxCell id="SjbKB2yikU2P-jFt_6lF-74" style="edgeStyle=orthogonalEdgeStyle;rounded=0;orthogonalLoop=1;jettySize=auto;html=1;exitX=1;exitY=0.5;exitDx=0;exitDy=0;entryX=-0.009;entryY=0.42;entryDx=0;entryDy=0;entryPerimeter=0;" parent="1" source="SjbKB2yikU2P-jFt_6lF-66" target="SjbKB2yikU2P-jFt_6lF-69" edge="1">
          <mxGeometry relative="1" as="geometry" />
        </mxCell>
        <mxCell id="SjbKB2yikU2P-jFt_6lF-75" style="edgeStyle=orthogonalEdgeStyle;rounded=0;orthogonalLoop=1;jettySize=auto;html=1;exitX=1;exitY=0.5;exitDx=0;exitDy=0;entryX=-0.023;entryY=0.853;entryDx=0;entryDy=0;entryPerimeter=0;" parent="1" source="SjbKB2yikU2P-jFt_6lF-67" target="SjbKB2yikU2P-jFt_6lF-69" edge="1">
          <mxGeometry relative="1" as="geometry" />
        </mxCell>
        <mxCell id="SjbKB2yikU2P-jFt_6lF-79" style="edgeStyle=orthogonalEdgeStyle;rounded=0;orthogonalLoop=1;jettySize=auto;html=1;exitX=1;exitY=0.5;exitDx=0;exitDy=0;entryX=0.003;entryY=0.434;entryDx=0;entryDy=0;entryPerimeter=0;" parent="1" source="SjbKB2yikU2P-jFt_6lF-4" target="SjbKB2yikU2P-jFt_6lF-29" edge="1">
          <mxGeometry relative="1" as="geometry" />
        </mxCell>
        <mxCell id="SjbKB2yikU2P-jFt_6lF-80" style="edgeStyle=orthogonalEdgeStyle;rounded=0;orthogonalLoop=1;jettySize=auto;html=1;exitX=1;exitY=0.5;exitDx=0;exitDy=0;entryX=0.003;entryY=0.872;entryDx=0;entryDy=0;entryPerimeter=0;" parent="1" source="SjbKB2yikU2P-jFt_6lF-5" target="SjbKB2yikU2P-jFt_6lF-29" edge="1">
          <mxGeometry relative="1" as="geometry" />
        </mxCell>
        <mxCell id="SjbKB2yikU2P-jFt_6lF-128" style="edgeStyle=orthogonalEdgeStyle;rounded=0;orthogonalLoop=1;jettySize=auto;html=1;endArrow=box;endFill=0;" parent="1" edge="1">
          <mxGeometry relative="1" as="geometry">
            <mxPoint x="1350.0133333333335" y="360" as="targetPoint" />
            <mxPoint x="1379.68" y="560" as="sourcePoint" />
            <Array as="points">
              <mxPoint x="1349.68" y="560" />
            </Array>
          </mxGeometry>
        </mxCell>
        <mxCell id="SjbKB2yikU2P-jFt_6lF-129" style="edgeStyle=orthogonalEdgeStyle;rounded=0;orthogonalLoop=1;jettySize=auto;html=1;exitX=0.25;exitY=0;exitDx=0;exitDy=0;endArrow=box;endFill=0;" parent="1" edge="1">
          <mxGeometry relative="1" as="geometry">
            <mxPoint x="1379.47" y="230" as="targetPoint" />
            <mxPoint x="1379.47" y="630" as="sourcePoint" />
          </mxGeometry>
        </mxCell>
        <mxCell id="SjbKB2yikU2P-jFt_6lF-130" style="edgeStyle=orthogonalEdgeStyle;rounded=0;orthogonalLoop=1;jettySize=auto;html=1;endArrow=box;startFill=0;endFill=0;" parent="1" edge="1">
          <mxGeometry relative="1" as="geometry">
            <mxPoint x="1410" y="160" as="targetPoint" />
            <mxPoint x="1350" y="560" as="sourcePoint" />
          </mxGeometry>
        </mxCell>
        <mxCell id="SjbKB2yikU2P-jFt_6lF-85" value="Reciprocal" style="whiteSpace=wrap;html=1;rounded=0;fillColor=#f8cecc;gradientColor=#ea6b66;strokeColor=#b85450;" parent="1" vertex="1">
          <mxGeometry x="1320" y="630" width="120" height="60" as="geometry" />
        </mxCell>
        <mxCell id="SjbKB2yikU2P-jFt_6lF-90" style="edgeStyle=orthogonalEdgeStyle;rounded=0;orthogonalLoop=1;jettySize=auto;html=1;exitX=1;exitY=0.5;exitDx=0;exitDy=0;entryX=0;entryY=0.85;entryDx=0;entryDy=0;entryPerimeter=0;" parent="1" source="SjbKB2yikU2P-jFt_6lF-22" target="SjbKB2yikU2P-jFt_6lF-63" edge="1">
          <mxGeometry relative="1" as="geometry" />
        </mxCell>
        <mxCell id="SjbKB2yikU2P-jFt_6lF-91" style="edgeStyle=orthogonalEdgeStyle;rounded=0;orthogonalLoop=1;jettySize=auto;html=1;exitX=1;exitY=0.5;exitDx=0;exitDy=0;entryX=0.001;entryY=0.416;entryDx=0;entryDy=0;entryPerimeter=0;" parent="1" source="SjbKB2yikU2P-jFt_6lF-21" target="SjbKB2yikU2P-jFt_6lF-63" edge="1">
          <mxGeometry relative="1" as="geometry" />
        </mxCell>
        <mxCell id="SjbKB2yikU2P-jFt_6lF-92" style="edgeStyle=orthogonalEdgeStyle;rounded=0;orthogonalLoop=1;jettySize=auto;html=1;exitX=1;exitY=0.5;exitDx=0;exitDy=0;" parent="1" source="SjbKB2yikU2P-jFt_6lF-20" edge="1">
          <mxGeometry relative="1" as="geometry">
            <mxPoint x="1440" y="165" as="targetPoint" />
          </mxGeometry>
        </mxCell>
        <mxCell id="SjbKB2yikU2P-jFt_6lF-93" value="&lt;font face=&quot;Times New Roman&quot; style=&quot;font-size: 24px;&quot;&gt;N = Parallel factor&lt;/font&gt;" style="text;html=1;align=center;verticalAlign=middle;resizable=0;points=[];autosize=1;strokeColor=none;fillColor=none;" parent="1" vertex="1">
          <mxGeometry x="245" y="-180" width="200" height="40" as="geometry" />
        </mxCell>
        <mxCell id="SjbKB2yikU2P-jFt_6lF-100" value="" style="rounded=0;whiteSpace=wrap;html=1;fillColor=#fff2cc;gradientColor=#ffd966;strokeColor=#d6b656;" parent="1" vertex="1">
          <mxGeometry x="170" y="110" width="120" height="300" as="geometry" />
        </mxCell>
        <mxCell id="SjbKB2yikU2P-jFt_6lF-106" style="edgeStyle=orthogonalEdgeStyle;rounded=0;orthogonalLoop=1;jettySize=auto;html=1;exitX=1;exitY=0.5;exitDx=0;exitDy=0;" parent="1" source="SjbKB2yikU2P-jFt_6lF-101" edge="1">
          <mxGeometry relative="1" as="geometry">
            <mxPoint x="319.9999999999998" y="166.71428571428578" as="targetPoint" />
          </mxGeometry>
        </mxCell>
        <mxCell id="SjbKB2yikU2P-jFt_6lF-101" value="RAM1_0" style="rounded=1;whiteSpace=wrap;html=1;" parent="1" vertex="1">
          <mxGeometry x="185" y="141" width="90" height="50" as="geometry" />
        </mxCell>
        <mxCell id="SjbKB2yikU2P-jFt_6lF-107" style="edgeStyle=orthogonalEdgeStyle;rounded=0;orthogonalLoop=1;jettySize=auto;html=1;exitX=1;exitY=0.5;exitDx=0;exitDy=0;" parent="1" source="SjbKB2yikU2P-jFt_6lF-102" edge="1">
          <mxGeometry relative="1" as="geometry">
            <mxPoint x="319.9999999999998" y="236.71428571428578" as="targetPoint" />
          </mxGeometry>
        </mxCell>
        <mxCell id="SjbKB2yikU2P-jFt_6lF-102" value="RAM1_1" style="rounded=1;whiteSpace=wrap;html=1;" parent="1" vertex="1">
          <mxGeometry x="185" y="211" width="90" height="50" as="geometry" />
        </mxCell>
        <mxCell id="SjbKB2yikU2P-jFt_6lF-108" style="edgeStyle=orthogonalEdgeStyle;rounded=0;orthogonalLoop=1;jettySize=auto;html=1;exitX=1;exitY=0.5;exitDx=0;exitDy=0;" parent="1" source="SjbKB2yikU2P-jFt_6lF-103" edge="1">
          <mxGeometry relative="1" as="geometry">
            <mxPoint x="319.9999999999998" y="365.28571428571445" as="targetPoint" />
          </mxGeometry>
        </mxCell>
        <mxCell id="SjbKB2yikU2P-jFt_6lF-103" value="RAM1_ j" style="rounded=1;whiteSpace=wrap;html=1;" parent="1" vertex="1">
          <mxGeometry x="185" y="340" width="90" height="50" as="geometry" />
        </mxCell>
        <mxCell id="SjbKB2yikU2P-jFt_6lF-104" value="" style="endArrow=none;dashed=1;html=1;dashPattern=1 3;strokeWidth=2;rounded=0;" parent="1" edge="1">
          <mxGeometry width="50" height="50" relative="1" as="geometry">
            <mxPoint x="229.5" y="330" as="sourcePoint" />
            <mxPoint x="229.5" y="260" as="targetPoint" />
            <Array as="points">
              <mxPoint x="229.5" y="300" />
            </Array>
          </mxGeometry>
        </mxCell>
        <mxCell id="SjbKB2yikU2P-jFt_6lF-169" style="edgeStyle=orthogonalEdgeStyle;rounded=0;orthogonalLoop=1;jettySize=auto;html=1;exitX=0.75;exitY=1;exitDx=0;exitDy=0;entryX=0.5;entryY=0;entryDx=0;entryDy=0;" parent="1" source="SjbKB2yikU2P-jFt_6lF-138" target="SjbKB2yikU2P-jFt_6lF-147" edge="1">
          <mxGeometry relative="1" as="geometry" />
        </mxCell>
        <mxCell id="SjbKB2yikU2P-jFt_6lF-138" value="Control Unit&lt;div&gt;&lt;br&gt;&lt;/div&gt;" style="rounded=1;whiteSpace=wrap;html=1;fillColor=#d5e8d4;gradientColor=#97d077;strokeColor=#82b366;" parent="1" vertex="1">
          <mxGeometry x="560" y="-180" width="1110" height="90" as="geometry" />
        </mxCell>
        <mxCell id="SjbKB2yikU2P-jFt_6lF-144" style="edgeStyle=orthogonalEdgeStyle;rounded=0;orthogonalLoop=1;jettySize=auto;html=1;exitX=0.5;exitY=1;exitDx=0;exitDy=0;entryX=0.5;entryY=0;entryDx=0;entryDy=0;fillColor=#d0cee2;strokeColor=#56517e;" parent="1" source="SjbKB2yikU2P-jFt_6lF-143" target="SjbKB2yikU2P-jFt_6lF-138" edge="1">
          <mxGeometry relative="1" as="geometry" />
        </mxCell>
        <mxCell id="SjbKB2yikU2P-jFt_6lF-143" value="latency_counter&lt;div&gt;for exp,adder tree, rpc, mul&lt;/div&gt;" style="rounded=1;whiteSpace=wrap;html=1;fillColor=#d0cee2;strokeColor=#56517e;" parent="1" vertex="1">
          <mxGeometry x="987.5" y="-330" width="255" height="60" as="geometry" />
        </mxCell>
        <mxCell id="SjbKB2yikU2P-jFt_6lF-148" style="edgeStyle=orthogonalEdgeStyle;rounded=0;orthogonalLoop=1;jettySize=auto;html=1;exitX=0;exitY=0.5;exitDx=0;exitDy=0;entryX=0.5;entryY=0;entryDx=0;entryDy=0;" parent="1" source="SjbKB2yikU2P-jFt_6lF-145" target="SjbKB2yikU2P-jFt_6lF-100" edge="1">
          <mxGeometry relative="1" as="geometry" />
        </mxCell>
        <mxCell id="SjbKB2yikU2P-jFt_6lF-149" style="edgeStyle=orthogonalEdgeStyle;rounded=0;orthogonalLoop=1;jettySize=auto;html=1;exitX=1;exitY=0.5;exitDx=0;exitDy=0;entryX=0.5;entryY=0;entryDx=0;entryDy=0;" parent="1" source="SjbKB2yikU2P-jFt_6lF-145" target="SjbKB2yikU2P-jFt_6lF-19" edge="1">
          <mxGeometry relative="1" as="geometry" />
        </mxCell>
        <mxCell id="SjbKB2yikU2P-jFt_6lF-145" value="address_generator_1" style="rounded=1;whiteSpace=wrap;html=1;fillColor=#fff2cc;gradientColor=#ffd966;strokeColor=#d6b656;" parent="1" vertex="1">
          <mxGeometry x="820" y="-60" width="120" height="60" as="geometry" />
        </mxCell>
        <mxCell id="SjbKB2yikU2P-jFt_6lF-150" style="edgeStyle=orthogonalEdgeStyle;rounded=0;orthogonalLoop=1;jettySize=auto;html=1;exitX=0;exitY=0.5;exitDx=0;exitDy=0;entryX=0.75;entryY=0;entryDx=0;entryDy=0;" parent="1" source="SjbKB2yikU2P-jFt_6lF-147" target="SjbKB2yikU2P-jFt_6lF-19" edge="1">
          <mxGeometry relative="1" as="geometry" />
        </mxCell>
        <mxCell id="SjbKB2yikU2P-jFt_6lF-151" style="edgeStyle=orthogonalEdgeStyle;rounded=0;orthogonalLoop=1;jettySize=auto;html=1;exitX=1;exitY=0.5;exitDx=0;exitDy=0;entryX=0.5;entryY=0;entryDx=0;entryDy=0;" parent="1" source="SjbKB2yikU2P-jFt_6lF-147" target="SjbKB2yikU2P-jFt_6lF-69" edge="1">
          <mxGeometry relative="1" as="geometry" />
        </mxCell>
        <mxCell id="SjbKB2yikU2P-jFt_6lF-147" value="address_generator_2" style="rounded=1;whiteSpace=wrap;html=1;fillColor=#f8cecc;gradientColor=#ea6b66;strokeColor=#b85450;" parent="1" vertex="1">
          <mxGeometry x="1335" y="-60" width="120" height="60" as="geometry" />
        </mxCell>
        <mxCell id="SjbKB2yikU2P-jFt_6lF-152" style="edgeStyle=orthogonalEdgeStyle;rounded=0;orthogonalLoop=1;jettySize=auto;html=1;exitX=0.25;exitY=1;exitDx=0;exitDy=0;entryX=0.142;entryY=-0.038;entryDx=0;entryDy=0;entryPerimeter=0;" parent="1" source="SjbKB2yikU2P-jFt_6lF-138" target="SjbKB2yikU2P-jFt_6lF-145" edge="1">
          <mxGeometry relative="1" as="geometry" />
        </mxCell>
        <mxCell id="SjbKB2yikU2P-jFt_6lF-160" style="edgeStyle=orthogonalEdgeStyle;rounded=0;orthogonalLoop=1;jettySize=auto;html=1;exitX=0;exitY=0.5;exitDx=0;exitDy=0;entryX=0.75;entryY=0;entryDx=0;entryDy=0;fillColor=#1ba1e2;strokeColor=#006EAF;" parent="1" source="SjbKB2yikU2P-jFt_6lF-159" target="SjbKB2yikU2P-jFt_6lF-100" edge="1">
          <mxGeometry relative="1" as="geometry" />
        </mxCell>
        <mxCell id="SjbKB2yikU2P-jFt_6lF-161" style="edgeStyle=orthogonalEdgeStyle;rounded=0;orthogonalLoop=1;jettySize=auto;html=1;exitX=0;exitY=0.5;exitDx=0;exitDy=0;entryX=0.5;entryY=0;entryDx=0;entryDy=0;fillColor=#1ba1e2;strokeColor=#006EAF;" parent="1" source="SjbKB2yikU2P-jFt_6lF-159" target="SjbKB2yikU2P-jFt_6lF-1" edge="1">
          <mxGeometry relative="1" as="geometry" />
        </mxCell>
        <mxCell id="SjbKB2yikU2P-jFt_6lF-162" style="edgeStyle=orthogonalEdgeStyle;rounded=0;orthogonalLoop=1;jettySize=auto;html=1;exitX=1;exitY=0.5;exitDx=0;exitDy=0;entryX=0.25;entryY=0;entryDx=0;entryDy=0;fillColor=#1ba1e2;strokeColor=#006EAF;" parent="1" source="SjbKB2yikU2P-jFt_6lF-159" target="SjbKB2yikU2P-jFt_6lF-19" edge="1">
          <mxGeometry relative="1" as="geometry" />
        </mxCell>
        <mxCell id="SjbKB2yikU2P-jFt_6lF-163" style="edgeStyle=orthogonalEdgeStyle;rounded=0;orthogonalLoop=1;jettySize=auto;html=1;exitX=1;exitY=0.5;exitDx=0;exitDy=0;entryX=0.5;entryY=0;entryDx=0;entryDy=0;fillColor=#1ba1e2;strokeColor=#006EAF;" parent="1" source="SjbKB2yikU2P-jFt_6lF-159" target="SjbKB2yikU2P-jFt_6lF-63" edge="1">
          <mxGeometry relative="1" as="geometry" />
        </mxCell>
        <mxCell id="SjbKB2yikU2P-jFt_6lF-164" style="edgeStyle=orthogonalEdgeStyle;rounded=0;orthogonalLoop=1;jettySize=auto;html=1;exitX=1;exitY=0.5;exitDx=0;exitDy=0;entryX=0.25;entryY=0;entryDx=0;entryDy=0;fillColor=#1ba1e2;strokeColor=#006EAF;" parent="1" source="SjbKB2yikU2P-jFt_6lF-159" target="SjbKB2yikU2P-jFt_6lF-69" edge="1">
          <mxGeometry relative="1" as="geometry" />
        </mxCell>
        <mxCell id="SjbKB2yikU2P-jFt_6lF-165" style="edgeStyle=orthogonalEdgeStyle;rounded=0;orthogonalLoop=1;jettySize=auto;html=1;exitX=0.5;exitY=1;exitDx=0;exitDy=0;fillColor=#1ba1e2;strokeColor=#006EAF;" parent="1" source="SjbKB2yikU2P-jFt_6lF-159" target="SjbKB2yikU2P-jFt_6lF-29" edge="1">
          <mxGeometry relative="1" as="geometry" />
        </mxCell>
        <mxCell id="SjbKB2yikU2P-jFt_6lF-159" value="module_generator" style="rounded=1;whiteSpace=wrap;html=1;fillColor=#dae8fc;gradientColor=#7ea6e0;strokeColor=#6c8ebf;" parent="1" vertex="1">
          <mxGeometry x="680" y="30" width="120" height="60" as="geometry" />
        </mxCell>
        <mxCell id="SjbKB2yikU2P-jFt_6lF-166" value="" style="endArrow=classic;html=1;rounded=0;entryX=0.5;entryY=0;entryDx=0;entryDy=0;exitX=0.163;exitY=0.985;exitDx=0;exitDy=0;exitPerimeter=0;fillColor=#b1ddf0;strokeColor=#10739e;" parent="1" source="SjbKB2yikU2P-jFt_6lF-138" target="SjbKB2yikU2P-jFt_6lF-159" edge="1">
          <mxGeometry width="50" height="50" relative="1" as="geometry">
            <mxPoint x="740" y="-85" as="sourcePoint" />
            <mxPoint x="1030" y="100" as="targetPoint" />
          </mxGeometry>
        </mxCell>
        <mxCell id="SjbKB2yikU2P-jFt_6lF-177" value="reg" style="rounded=0;whiteSpace=wrap;html=1;" parent="1" vertex="1">
          <mxGeometry x="1350" y="580" width="60" height="20" as="geometry" />
        </mxCell>
      </root>
    </mxGraphModel>
  </diagram>
</mxfile>
